<svg xmlns="http://www.w3.org/2000/svg" width="32" height="32" viewBox="0 0 256 256">
  <path d="M251.76,88.94l-120-64a8,8,0,0,0-7.52,0l-120,64a8,8,0,0,0,0,14.12L32,117.87v48.42a15.91,15.91,0,0,0,4.06,10.65C49.16,191.53,78.51,216,128,216a130,130,0,0,0,48-8.76V240a8,8,0,0,0,16,0V199.51a115.63,115.63,0,0,0,27.94-22.57A15.91,15.91,0,0,0,224,166.29V117.87l27.76-14.81a8,8,0,0,0,0-14.12ZM128,200c-43.27,0-68.72-21.14-80-33.71V126.4l76.24,40.66a8,8,0,0,0,7.52,0L176,143.47v46.34C163.4,195.69,147.52,200,128,200Zm80-33.75a1.42,1.42,0,0,1-.54,1L192,175.48V131.86l16-8.53ZM188.12,112,128,144.09,67.88,112,128,79.91Z" fill="#1a73e8"/>
</svg>
